<?xml version="1.0" encoding="UTF-8"?>
<svg id="Layer_1" data-name="Layer 1" xmlns="http://www.w3.org/2000/svg" viewBox="0 0 278.71 335.4">
  <defs>
    <style>
      .cls-1 {
        fill: #006df0;
      }
    </style>
  </defs>
  <path id="Line_9" data-name="Line 9" class="cls-1" d="M210.21,198.4H35.43C15.86,198.4,0,182.54,0,162.97c0-19.56,15.86-35.42,35.43-35.43H210.21c19.57,0,35.43,15.86,35.43,35.43,0,19.57-15.86,35.43-35.43,35.43h0Z"/>
  <path id="Path_27" data-name="Path 27" class="cls-1" d="M243.28,335.4c-19.57,0-35.43-15.86-35.43-35.43,0,0,0,0,0,0V125.18c0-19.57,15.87-35.43,35.43-35.43,19.56,0,35.42,15.86,35.43,35.43v174.78c0,19.57-15.86,35.43-35.43,35.43h0Z"/>
  <circle id="Ellipse_7" data-name="Ellipse 7" class="cls-1" cx="243.21" cy="35.5" r="35.5"/>
  <path id="Line_8" data-name="Line 8" class="cls-1" d="M35.43,335.4c-19.57,0-35.43-15.86-35.43-35.43H0V35.43C0,15.86,15.87,0,35.43,0c19.56,0,35.42,15.86,35.43,35.43V299.97c0,19.57-15.86,35.43-35.43,35.43h0Z"/>
</svg>