<?xml version="1.0" encoding="utf-8"?>
<!-- Generator: Adobe Illustrator 27.0.1, SVG Export Plug-In . SVG Version: 6.00 Build 0)  -->
<svg version="1.1" id="Layer_1" xmlns="http://www.w3.org/2000/svg" xmlns:xlink="http://www.w3.org/1999/xlink" x="0px" y="0px"
	 viewBox="0 0 278.7 335.4" style="enable-background:new 0 0 278.7 335.4;" xml:space="preserve">
<style type="text/css">
	.st0{fill:#53A6D8;}
</style>
<g>
	<path class="st0" d="M243.3,89.8c-19.6,0-35.4,15.9-35.4,35.4v2.4h-137V35.4C70.8,15.9,55,0,35.4,0S0,15.9,0,35.4V300
		c0,19.6,15.9,35.4,35.4,35.4s35.4-15.9,35.4-35.4V198.4h137V300c0,19.6,15.9,35.4,35.4,35.4v0c19.6,0,35.4-15.9,35.4-35.4V125.2
		C278.7,105.6,262.8,89.8,243.3,89.8z"/>
	<circle class="st0" cx="243.2" cy="35.5" r="35.5"/>
</g>
</svg>
